<?xml version="1.0" encoding="utf-8"?>
<!-- Generator: Adobe Illustrator 16.0.0, SVG Export Plug-In . SVG Version: 6.00 Build 0)  -->
<!DOCTYPE svg PUBLIC "-//W3C//DTD SVG 1.1//EN" "http://www.w3.org/Graphics/SVG/1.1/DTD/svg11.dtd">
<svg version="1.1" id="Layer_1" xmlns="http://www.w3.org/2000/svg" xmlns:xlink="http://www.w3.org/1999/xlink" x="0px" y="0px"
	 width="124.121px" height="29.45px" viewBox="0 0 124.121 29.45" enable-background="new 0 0 124.121 29.45" xml:space="preserve">
<g>
	<path d="M9.841,7.081v1.114c0.603-0.517,1.267-0.904,1.994-1.162S13.35,6.646,14.2,6.646c1.958,0,3.508,0.608,4.649,1.824
		c0.904,0.969,1.356,2.239,1.356,3.81v6.151c0.7,0,1.216,0.153,1.55,0.46s0.5,0.708,0.5,1.203c0,0.484-0.169,0.88-0.509,1.187
		c-0.339,0.307-0.907,0.46-1.703,0.46h-2.986c-0.797,0-1.364-0.153-1.703-0.46c-0.339-0.307-0.508-0.708-0.508-1.203
		c0-0.484,0.167-0.88,0.5-1.187s0.85-0.46,1.55-0.46v-6.248c0-0.721-0.193-1.249-0.581-1.583c-0.506-0.43-1.265-0.646-2.276-0.646
		c-0.764,0-1.434,0.148-2.01,0.444c-0.576,0.296-1.305,0.923-2.188,1.881v6.151c0.85,0,1.399,0.081,1.646,0.242
		c0.527,0.323,0.791,0.796,0.791,1.42c0,0.484-0.169,0.88-0.508,1.187c-0.339,0.307-0.907,0.46-1.703,0.46H6.306
		c-0.797,0-1.364-0.153-1.703-0.46c-0.339-0.307-0.509-0.708-0.509-1.203c0-0.603,0.258-1.071,0.775-1.404
		c0.258-0.162,0.813-0.242,1.663-0.242v-8.04c-0.7,0-1.217-0.156-1.55-0.468s-0.5-0.71-0.5-1.194c0-0.484,0.17-0.88,0.509-1.187
		s0.907-0.46,1.703-0.46H9.841z"/>
	<path d="M36.672,8.066V7.081h3.875c0.796,0,1.364,0.153,1.703,0.46s0.508,0.708,0.508,1.203c0,0.484-0.169,0.88-0.508,1.187
		c-0.339,0.307-0.907,0.46-1.703,0.46h-0.565v12.043c0,1.163-0.245,2.177-0.734,3.043c-0.49,0.867-1.24,1.612-2.252,2.236
		c-1.012,0.624-2.153,0.936-3.422,0.936h-3.746c-0.796,0-1.364-0.153-1.703-0.46c-0.339-0.307-0.508-0.702-0.508-1.187
		c0-0.495,0.169-0.896,0.508-1.203c0.339-0.307,0.907-0.46,1.703-0.46h3.649c1.011,0,1.797-0.275,2.356-0.824s0.84-1.243,0.84-2.083
		v-1.614c-0.732,0.474-1.477,0.829-2.236,1.065c-0.758,0.236-1.536,0.355-2.333,0.355c-2.25,0-4.133-0.75-5.65-2.252
		c-1.517-1.501-2.276-3.355-2.276-5.561c0-2.217,0.759-4.077,2.276-5.578c1.518-1.501,3.401-2.252,5.65-2.252
		c0.84,0,1.639,0.121,2.397,0.363S35.983,7.571,36.672,8.066z M36.656,14.41c0-1.216-0.45-2.271-1.348-3.164
		c-0.899-0.893-1.978-1.34-3.237-1.34s-2.338,0.447-3.237,1.34c-0.899,0.894-1.348,1.948-1.348,3.164
		c0,1.227,0.449,2.285,1.348,3.172c0.898,0.888,1.978,1.332,3.237,1.332s2.338-0.444,3.237-1.332
		C36.207,16.695,36.656,15.637,36.656,14.41z"/>
	<path d="M46.117,18.43V5.483H45.6c-0.796,0-1.364-0.153-1.703-0.46c-0.339-0.307-0.508-0.708-0.508-1.203
		c0-0.495,0.169-0.896,0.508-1.203c0.339-0.307,0.907-0.46,1.703-0.46h8.298c1.98,0,3.573,0.552,4.779,1.655
		c1.205,1.103,1.808,2.414,1.808,3.931c0,0.722-0.14,1.399-0.419,2.034c-0.28,0.635-0.705,1.222-1.275,1.76
		c1.044,0.625,1.827,1.354,2.349,2.188c0.521,0.834,0.783,1.779,0.783,2.833c0,0.839-0.188,1.62-0.565,2.341
		c-0.28,0.549-0.625,0.985-1.033,1.308c-0.549,0.452-1.222,0.821-2.018,1.105c-0.796,0.286-1.792,0.428-2.986,0.428H45.6
		c-0.796,0-1.364-0.153-1.703-0.46c-0.339-0.307-0.508-0.708-0.508-1.203c0-0.484,0.172-0.88,0.517-1.187
		c0.344-0.307,0.909-0.46,1.695-0.46H46.117z M49.426,10.293h3.632c1.302,0,2.384-0.328,3.245-0.984
		c0.582-0.441,0.872-0.99,0.872-1.647c0-0.581-0.274-1.089-0.823-1.525s-1.421-0.654-2.615-0.654h-4.311V10.293z M49.426,18.43
		h5.715c1.345,0,2.292-0.199,2.841-0.598c0.42-0.301,0.629-0.731,0.629-1.292c0-0.667-0.414-1.324-1.243-1.969
		c-0.829-0.646-2.018-0.969-3.568-0.969h-4.375V18.43z"/>
	<path d="M74.368,0.801V18.43h3.971c0.796,0,1.364,0.153,1.703,0.46c0.339,0.307,0.509,0.708,0.509,1.203
		c0,0.484-0.169,0.88-0.509,1.187c-0.339,0.307-0.907,0.46-1.703,0.46H67.086c-0.796,0-1.364-0.153-1.703-0.46
		c-0.339-0.307-0.508-0.708-0.508-1.203c0-0.484,0.169-0.88,0.508-1.187s0.906-0.46,1.703-0.46h3.972V4.111h-2.664
		c-0.786,0-1.351-0.153-1.695-0.46c-0.344-0.307-0.517-0.708-0.517-1.203c0-0.484,0.169-0.88,0.509-1.187
		c0.339-0.307,0.906-0.46,1.703-0.46H74.368z"/>
	<path d="M101.15,14.685c0,1.27-0.353,2.5-1.058,3.689c-0.705,1.189-1.754,2.137-3.148,2.841c-1.394,0.705-2.849,1.058-4.367,1.058
		c-1.507,0-2.949-0.347-4.327-1.042s-2.427-1.639-3.148-2.833c-0.721-1.195-1.082-2.443-1.082-3.746
		c0-1.324,0.366-2.623,1.098-3.898c0.731-1.275,1.784-2.279,3.156-3.011c1.372-0.731,2.806-1.097,4.302-1.097
		c1.507,0,2.957,0.374,4.351,1.122c1.394,0.749,2.446,1.754,3.156,3.019S101.15,13.351,101.15,14.685z M97.84,14.701
		c0-1.065-0.382-2.044-1.146-2.938c-1.044-1.205-2.416-1.808-4.117-1.808c-1.496,0-2.744,0.479-3.746,1.437
		c-1,0.958-1.501,2.066-1.501,3.326c0,1.033,0.505,1.999,1.517,2.897c1.012,0.899,2.255,1.348,3.729,1.348
		c1.485,0,2.733-0.449,3.746-1.348C97.334,16.716,97.84,15.745,97.84,14.701z"/>
	<path d="M116.035,8.066V7.081h3.874c0.797,0,1.365,0.153,1.704,0.46s0.508,0.708,0.508,1.203c0,0.484-0.169,0.88-0.508,1.187
		c-0.339,0.307-0.907,0.46-1.704,0.46h-0.564v12.043c0,1.163-0.245,2.177-0.734,3.043c-0.49,0.867-1.241,1.612-2.252,2.236
		c-1.012,0.624-2.152,0.936-3.422,0.936h-3.745c-0.797,0-1.364-0.153-1.704-0.46c-0.339-0.307-0.508-0.702-0.508-1.187
		c0-0.495,0.169-0.896,0.508-1.203c0.339-0.307,0.907-0.46,1.704-0.46h3.648c1.012,0,1.797-0.275,2.357-0.824
		c0.56-0.549,0.839-1.243,0.839-2.083v-1.614c-0.732,0.474-1.477,0.829-2.236,1.065s-1.537,0.355-2.333,0.355
		c-2.25,0-4.133-0.75-5.65-2.252c-1.518-1.501-2.276-3.355-2.276-5.561c0-2.217,0.759-4.077,2.276-5.578
		c1.517-1.501,3.4-2.252,5.65-2.252c0.84,0,1.639,0.121,2.397,0.363S115.346,7.571,116.035,8.066z M116.019,14.41
		c0-1.216-0.45-2.271-1.348-3.164c-0.898-0.893-1.978-1.34-3.237-1.34c-1.259,0-2.338,0.447-3.237,1.34
		c-0.898,0.894-1.348,1.948-1.348,3.164c0,1.227,0.45,2.285,1.348,3.172s1.978,1.332,3.237,1.332c1.259,0,2.338-0.444,3.237-1.332
		S116.019,15.637,116.019,14.41z"/>
</g>
</svg>
